<?xml version="1.0" encoding="UTF-8" standalone="no"?>
<!-- Created with Inkscape (http://www.inkscape.org/) -->

<svg
   version="1.1"
   id="svg2"
   width="607.65332"
   height="150.32001"
   viewBox="0 0 607.65332 150.32001"
   sodipodi:docname="hogia_logo_cmyk.eps"
   xmlns:inkscape="http://www.inkscape.org/namespaces/inkscape"
   xmlns:sodipodi="http://sodipodi.sourceforge.net/DTD/sodipodi-0.dtd"
   xmlns="http://www.w3.org/2000/svg"
   xmlns:svg="http://www.w3.org/2000/svg">
  <defs
     id="defs6" />
  <sodipodi:namedview
     id="namedview4"
     pagecolor="#ffffff"
     bordercolor="#000000"
     borderopacity="0.25"
     inkscape:showpageshadow="2"
     inkscape:pageopacity="0.0"
     inkscape:pagecheckerboard="0"
     inkscape:deskcolor="#d1d1d1" />
  <g
     id="g8"
     inkscape:groupmode="layer"
     inkscape:label="ink_ext_XXXXXX"
     transform="matrix(1.3333333,0,0,-1.3333333,0,150.32)">
    <g
       id="g10"
       transform="scale(0.1)">
      <path
         d="M 1671.81,563.152 C 1470.53,938.941 1090.45,1127.35 1090.45,1127.35 H 222.156 c 0,0 -486.019,-520.291 -20.312,-1127.35 h 919.676 c 0,0 380.06,213.055 547.09,554.586 l 3.2,8.566"
         style="fill:#173a79;fill-opacity:1;fill-rule:nonzero;stroke:none"
         id="path12" />
      <path
         d="m 244.68,1058.84 h 834 c 0,0 366.17,-203.414 521.39,-495.688 0,0 -235.51,-375.793 -510.67,-499.9801 H 239.313 c 0,0 -388.633,433.6011 0,990.3181 l 5.367,5.35"
         style="fill:#fddd04;fill-opacity:1;fill-rule:nonzero;stroke:none"
         id="path14" />
      <path
         d="M 239.313,969.988 H 557.301 V 701.266 h 220.535 l -0.016,268.691 h 315.82 l 0.03,-812.559 c 0,0 -315.834,-2.175 -315.834,0 0,1.036 0,297.637 0,297.637 H 557.301 V 157.398 H 239.313 v 812.59"
         style="fill:#173a79;fill-opacity:1;fill-rule:nonzero;stroke:none"
         id="path16" />
      <path
         d="m 1816.76,894.547 h 269.65 V 665.543 h 187.03 v 227.609 h 268.2 V 210.496 c 0,0 -268.2,-1.457 -268.2,0 0,1.453 0,246.277 0,246.277 H 2086.41 V 210.496 h -269.65 v 684.051"
         style="fill:#173a79;fill-opacity:1;fill-rule:nonzero;stroke:none"
         id="path18" />
      <path
         d="m 2855.78,563.641 c -44.17,-1.848 -69.26,-43.672 -69.73,-83.176 -0.44,-39.481 9.31,-89.207 71.56,-90.606 62.29,-1.386 76.24,44.61 78.07,90.606 1.86,46.015 -29.26,83.176 -78.07,83.176 h -3.69 M 2556.74,478.16 c 0,150.969 129.58,275.215 300.87,275.215 171.32,0 304.6,-124.246 304.6,-275.215 0,-150.984 -133.28,-275.234 -304.6,-275.234 -171.29,0 -300.87,124.25 -300.87,275.234"
         style="fill:#173a79;fill-opacity:1;fill-rule:nonzero;stroke:none"
         id="path20" />
      <path
         d="m 3395.73,497.66 c 0,-34.375 18.59,-73.414 70.61,-72.508 52.05,0.957 51.1,25.118 52.05,79.942 0.92,54.824 -11.14,64.121 -50.18,67.851 -39.03,3.703 -72.48,-23.242 -72.48,-71.574 v -3.711 m 108.72,229.543 26,20.449 H 3746.1 V 256.969 c 0,0 -9.32,-185.8792 -241.65,-198.8909 -33.44,-1.8867 -63.77,-7.0976 -91.05,-5.4297 -27.91,1.711 -51.14,3.793 -72.61,6.4805 -107.33,13.4805 -148.62,41.7111 -148.62,41.7111 l 53.92,130.113 c 0,0 95.71,-32.547 136.63,-31.601 40.88,0.918 130.09,10.195 129.17,45.527 0,0 -1.86,18.594 -27.9,9.277 -26.02,-9.277 -237.9,-64.121 -308.55,177.539 0,0 -55.72,284.356 213.78,322.461 0,0 72.48,0 115.23,-26.953"
         style="fill:#173a79;fill-opacity:1;fill-rule:nonzero;stroke:none"
         id="path22" />
      <path
         d="m 3786.98,743.934 h 232.34 V 210.496 h -232.34 v 533.438"
         style="fill:#173a79;fill-opacity:1;fill-rule:nonzero;stroke:none"
         id="path24" />
      <path
         d="m 3904.06,772.945 c 58.05,0 112.57,53.145 112.57,114.114 0,60.984 -54.52,110.41 -112.57,110.41 -58.05,0 -108.84,-49.426 -108.84,-110.41 0,-60.969 50.79,-114.114 108.84,-114.114"
         style="fill:#173a79;fill-opacity:1;fill-rule:nonzero;stroke:none"
         id="path26" />
      <path
         d="m 4305.55,341.539 c 35.32,5.547 24.14,68.75 24.14,68.75 0,29.746 -20.42,26.973 -20.42,26.973 0,0 -52.28,-9.766 -54.39,-49.727 0,0 -4.64,-52.285 52.31,-45.781 l -1.64,-0.215 m 233.25,262.07 c 15.82,-38.113 18.6,-393.113 18.6,-393.113 h -197.96 l -34.39,23.231 C 4288.81,207.711 4206.11,204 4206.11,204 c -113.39,0 -154.28,94.785 -154.28,94.785 -82.71,242.57 249.07,244.414 249.07,244.414 29.74,3.731 11.14,26.953 11.14,26.953 -54.83,56.7 -254.62,-35.312 -254.62,-35.312 0,0 13.92,144.043 31.6,170.996 17.64,26.953 382.86,121.984 450.73,-104.785"
         style="fill:#173a79;fill-opacity:1;fill-rule:nonzero;stroke:none"
         id="path28" />
    </g>
  </g>
</svg>
