<?xml version="1.0" encoding="UTF-8" standalone="no"?>
<!-- Created with Inkscape (http://www.inkscape.org/) -->

<svg
   width="186.93892mm"
   height="215.51752mm"
   viewBox="0 0 186.93892 215.51752"
   version="1.1"
   id="svg216"
   inkscape:version="1.2.2 (732a01da63, 2022-12-09)"
   sodipodi:docname="tjorn.svg"
   xmlns:inkscape="http://www.inkscape.org/namespaces/inkscape"
   xmlns:sodipodi="http://sodipodi.sourceforge.net/DTD/sodipodi-0.dtd"
   xmlns:xlink="http://www.w3.org/1999/xlink"
   xmlns="http://www.w3.org/2000/svg"
   xmlns:svg="http://www.w3.org/2000/svg">
  <sodipodi:namedview
     id="namedview218"
     pagecolor="#ffffff"
     bordercolor="#000000"
     borderopacity="0.25"
     inkscape:showpageshadow="2"
     inkscape:pageopacity="0.0"
     inkscape:pagecheckerboard="0"
     inkscape:deskcolor="#d1d1d1"
     inkscape:document-units="mm"
     showgrid="false"
     inkscape:zoom="1.5488759"
     inkscape:cx="325.39728"
     inkscape:cy="26.147995"
     inkscape:window-width="1920"
     inkscape:window-height="1051"
     inkscape:window-x="-9"
     inkscape:window-y="-9"
     inkscape:window-maximized="1"
     inkscape:current-layer="g26" />
  <defs
     id="defs213">
    <mask
       id="prefix__b"
       fill="#ffffff">
      <path
         id="use6"
         d="M 0,0.538 H 39.511 V 46.189 H 0 Z" />
    </mask>
  </defs>
  <g
     inkscape:label="Lager 1"
     inkscape:groupmode="layer"
     id="layer1">
    <g
       fill="none"
       fill-rule="evenodd"
       id="g26"
       transform="matrix(4.7017489,0,0,4.7017489,1.304404,-37.4842)">
      <g
         transform="translate(-0.27742953,7.4343951)"
         id="g11">
        <mask
           id="mask202"
           fill="#ffffff">
          <path
             id="use200"
             d="M 0,0.538 H 39.511 V 46.189 H 0 Z" />
        </mask>
        <path
           fill="#0061ad"
           d="m 38.525,27.55 c 0.013,9.384 -9.274,17.472 -18.76,17.501 -5.594,0.014 -11.068,-2.788 -14.647,-6.99 l 5.828,-6.347 c 0.02,-0.079 0.438,-2.17 0.357,-2.615 -0.536,0.289 -2.226,2.017 -2.349,1.919 -0.123,-0.108 3.048,-9.535 3.274,-9.494 0.228,0.041 -1.564,6.074 -1.748,6.836 0.327,-0.084 0.39,-0.515 0.618,-0.7 0.159,-0.135 0.286,0.29 0.616,0.247 0.33,-0.044 0.536,-0.208 0.411,-0.617 -0.123,-0.414 -0.536,-0.207 -0.617,-0.575 0.329,-1.013 1.47,-2.948 2.699,-4.656 1.072,-1.49 2.272,-2.836 2.262,-2.903 -0.02,-0.145 -0.986,-0.67 -1.954,-1.298 -0.7,-0.452 -1.135,-0.822 -1.277,-1.233 -0.104,-0.268 -0.122,-0.434 -0.167,-0.91 -0.205,0.105 -0.908,0.934 -1.234,1.178 -0.471,0.35 -1.07,0.02 -1.07,0.02 0,0 0.206,1.892 0.04,2.757 -0.163,0.866 -1.03,1.523 -1.03,1.523 0,0 -0.389,2.574 -0.577,3.44 -0.154,0.735 -0.495,1.81 -1.233,3.378 -0.658,1.399 -0.86,1.521 -0.95,1.461 C 6.816,29.327 6.527,27.681 6.505,27.061 6.71,26.652 8.09,24.118 8.215,21.936 7.761,21.771 6.012,22.923 5.517,24.488 4.735,26.528 5.127,28.811 5.003,29.8 4.321,29.327 3.136,27.103 2.592,25.13 2.306,24.077 1.934,22.142 1.956,21.135 1.981,19.898 3.458,16.046 3.768,15.781 4.855,14.835 7.308,13.74 8.09,13.864 c 0.785,0.122 0.885,0.495 1.07,0.413 0.186,-0.083 0.04,-0.453 0.248,-0.828 0.206,-0.368 0.453,-0.57 1.153,-0.368 0.699,0.206 2.14,1.196 2.51,1.196 0.372,0 0.454,-0.083 0.744,-0.207 0.288,-0.124 0.799,-0.218 1.171,0.289 0.764,1.03 1.958,3.727 2.287,3.746 0.164,-0.226 0.267,-0.388 0.431,-0.536 C 17.56,17.222 15.818,12.034 15.584,11.972 14.452,11.663 8.647,10.488 7.907,10.138 7.822,9.869 8.544,9.745 8.607,9.623 8.667,9.499 7.947,8.8 7.967,8.593 c 0.35,0 8.113,2.349 8.4,2.552 0.247,0.167 1.772,5.56 1.896,5.726 0.121,0.165 0.47,-0.331 0.493,-0.535 0.022,-0.208 -1.03,-5.477 -1.091,-5.62 -0.062,-0.147 -6.217,-3.254 -6.3,-3.42 0.349,-0.164 0.76,0 0.863,-0.101 0.104,-0.103 -0.246,-0.784 -0.123,-1.154 0.123,-0.02 5.683,3.293 6.404,3.995 0.164,0.435 0.745,5.305 0.907,5.6 0.123,0.228 0.408,-0.372 0.678,-0.577 0.04,-0.598 -0.248,-5.249 -0.432,-5.599 -0.576,-0.392 -4.9,-3.727 -4.922,-3.934 0.496,0.022 1.277,0.348 1.36,0.185 0.082,-0.163 -0.042,-0.844 0.082,-1.09 0.39,0.144 3.726,3.993 4.221,4.547 0.186,0.372 0.246,5.232 0.371,5.272 0.124,0.041 0.432,-0.163 0.577,-0.454 C 21.492,13.7 21.743,9.292 21.555,8.884 21.37,8.471 18.447,5.197 18.343,4.928 c -0.101,-0.265 1.152,0.436 1.275,0.373 0.128,-0.064 -0.08,-1.215 0.128,-1.051 0.202,0.164 2.54,3.678 2.634,4.18 0.143,0.761 -0.537,3.992 -0.434,4.611 0.016,0.135 -0.077,0.482 0.145,0.408 0.289,-0.325 1.164,-0.744 1.645,-0.92 0.022,-1.094 0.826,-1.384 1.565,-1.465 0.248,-0.658 0.844,-1.481 1.937,-1.504 0.392,-0.74 0.906,-1.355 1.895,-1.257 0.288,-0.822 0.41,-1.108 1.233,-1.316 0.311,-0.017 -0.08,-2.86 0.083,-3.56 0.255,-1.08 1.38,-0.536 1.668,-0.29 0.637,-0.575 1.914,-0.473 1.978,0.824 0.86,-0.287 1.523,0.021 1.842,0.537 L 38.525,1.676 Z M 0,0.537 0.02,27.762 C 0.016,37.598 9.71,46.217 19.764,46.19 29.749,46.164 39.526,37.65 39.51,27.765 V 0.538 H 0 Z"
           mask="url(#prefix__b)"
           id="path9"
           style="fill:#000000" />
      </g>
      <path
         fill="#0061ad"
         d="m 12.896,38.773 c 0,0 -1.76,2.831 -1.677,2.969 0.866,-0.254 7.434,-3.55 9.964,-4.998 -0.121,-0.033 -7.52,2.965 -7.52,2.965 0,0 0.473,-0.493 1.22,-1.044 0.064,-0.205 -0.247,-0.113 -0.43,-0.306 -0.183,-0.195 -0.238,-0.517 0.062,-0.725 0.262,-0.233 0.616,-0.1 0.76,0.086 0.164,0.141 0.185,0.573 0.442,0.484 2.543,-1.875 6.626,-4.931 7.39,-5.772 0.383,-0.354 1.35,3.252 1.744,3.824 0.227,0.413 0.679,0.62 1.256,0.556 0.391,-0.08 -0.168,1.606 -0.044,2.346 0.103,0.44 0.475,0.393 0.452,0.6 -0.017,0.289 -0.397,0.247 -0.945,0.536 -0.6,0.31 -1.402,0.841 -1.852,1.316 -3.603,-0.062 -8.93,0.432 -12.55,3.479 1.637,-0.183 2.726,-0.33 4.5,0.354 0.896,-0.33 4.178,-1.403 6.855,-1.013 -0.719,2.163 -2.777,2.122 -4.034,1.503 -0.784,1.216 -2.657,1.3 -4.752,0.675 A 2.011,2.011 0 0 1 11.11,46.161 c -0.906,0 -1.84,-0.22 -1.893,0.055 0.41,0.989 1.7,2.306 2.553,2.908 2.36,1.702 4.362,2.36 7.136,2.582 4.152,0.082 7.008,-0.854 8.684,-2.307 1.7,-1.51 3.807,-3.323 3.312,-6.37 -0.11,-0.546 -0.474,-1.728 -0.762,-2.198 -0.267,-0.518 -1.028,-0.889 -0.904,-1.095 0.246,-0.123 0.484,-0.574 0.513,-0.718 0.126,-0.62 -2.05,-2.698 -1.994,-2.819 0.244,-0.54 0.368,-1.425 0.036,-1.772 -0.636,-0.66 -3.603,-2.764 -3.62,-2.925 0.04,-0.143 0.19,-0.202 0.267,-0.29 0.038,-0.042 5.106,1.257 5.458,1.383 0.23,0.578 2.798,8.316 2.942,8.417 0.268,0.044 0.165,-1.07 0.556,-1.338 0.33,0.105 0.832,0.857 1.297,0.884 -0.225,-0.553 -3.399,-8.583 -3.808,-8.895 -1.359,-0.264 -5.827,-0.924 -5.827,-1.192 0.093,-0.116 0.26,-0.273 0.35,-0.39 0.289,-0.023 4.713,0.577 5.847,0.76 0.616,0.598 3.253,5.763 3.91,6.547 0.188,-0.163 0,-1.007 0.289,-1.523 0.454,0.064 1.04,0.416 1.279,0.413 -0.413,-0.988 -4.788,-6.479 -4.736,-6.526 -1.052,-0.227 -5.888,-0.37 -5.87,-0.556 0.094,-0.134 0.142,-0.3 0.228,-0.433 0.227,-0.104 5.434,0.084 6.093,0.102 0.303,0.267 2.821,2.7 3.726,3.582 0.229,-0.059 0.063,-0.717 0.146,-0.822 0.122,-0.08 0.599,0.038 0.699,-0.04 -0.782,-1.048 -3.601,-3.542 -4.18,-3.934 -4.014,0.101 -5.838,0.446 -5.947,0.167 0.058,-0.106 0.087,-0.23 0.141,-0.331 0.248,-0.082 5.087,-0.7 5.848,-0.74 0.68,0.41 2.902,2.634 3.852,3.333 0.246,-0.04 -0.105,-0.638 -0.083,-1.152 0.308,-0.125 0.856,-0.165 0.863,-0.186 -1.092,-0.844 -3.56,-2.881 -4.22,-3.172 -0.458,-0.083 -4.343,0.866 -5.516,0.968 -0.207,0.045 -0.29,0 -0.28,-0.14 0.11,-0.285 0.242,-0.477 0.257,-0.66 0.64,-0.168 1.175,-0.25 1.258,-1.427 1.07,-0.414 1.07,-0.906 1.233,-1.622 0.907,-0.274 1.236,-0.99 1.262,-1.813 0.966,-0.32 1.153,-0.841 1.073,-1.59 0.933,-0.166 1.18,-0.934 1.208,-1.704 1.344,-0.024 2.47,-0.024 3.294,-0.054 0.506,-0.017 0.761,-0.697 0.658,-1.207 -0.11,-0.551 -0.3,-0.688 -0.576,-1.045 0.304,-0.354 0.22,-0.959 -0.027,-1.343 -0.246,-0.387 -0.606,-0.606 -1.016,-0.716 A 1.37,1.37 0 0 0 35.938,12.21 L 10.947,39.427 v 0.007 l 1.949,-0.66 z"
         id="path13"
         style="fill:#000000" />
      <g
         transform="translate(80.635,0.667)"
         id="g22">
        <mask
           id="prefix__d"
           fill="#ffffff">
          <use
             xlink:href="#prefix__c"
             id="use17" />
        </mask>
      </g>
    </g>
  </g>
</svg>
